REM DIRINDEX 1\2,1\3\7,1\3\8,1\4\9,1\4\10,1\4\11,1\5\12,1\5\13,1\5\14,1\6\15,1\6\16,1\6\17
REM DIRNAME "folder01","folder02","folder03","folder04","folder05","folder06","folder07","folder08","folder09","folder10","folder11","folder12","folder13","folder14","folder15","folder16","folder17"
TITLE ""
FILE "2Q_t_1218-1235.mp3" MP3
  TRACK 01 AUDIO
    TITLE "0:"
    INDEX 01 00:00:00
  TRACK 02 AUDIO
    TITLE "7:cjc174_4233"
    INDEX 01 00:00:10
  TRACK 03 AUDIO
    TITLE "0:"
    INDEX 01 00:01:23
  TRACK 04 AUDIO
    TITLE "8:cjc174_4234"
    INDEX 01 00:01:74
  TRACK 05 AUDIO
    TITLE "0:"
    INDEX 01 00:03:30
  TRACK 06 AUDIO
    TITLE "7:cjc174_4235"
    INDEX 01 00:03:75
  TRACK 07 AUDIO
    TITLE "0:"
    INDEX 01 00:05:13
  TRACK 08 AUDIO
    TITLE "8:cjc174_4236"
    INDEX 01 00:05:64
  TRACK 09 AUDIO
    TITLE "0:"
    INDEX 01 00:07:14
  TRACK 10 AUDIO
    TITLE "7:cjc174_4237"
    INDEX 01 00:07:59
  TRACK 11 AUDIO
    TITLE "0:"
    INDEX 01 00:08:74
  TRACK 12 AUDIO
    TITLE "8:cjc174_4238"
    INDEX 01 00:09:48
  TRACK 13 AUDIO
    TITLE "0:"
    INDEX 01 00:11:04
  TRACK 14 AUDIO
    TITLE "7:cjc174_4239"
    INDEX 01 00:11:49
  TRACK 15 AUDIO
    TITLE "0:"
    INDEX 01 00:12:39
  TRACK 16 AUDIO
    TITLE "8:cjc174_4240"
    INDEX 01 00:13:21
  TRACK 17 AUDIO
    TITLE "0:"
    INDEX 01 00:15:53
  TRACK 18 AUDIO
    TITLE "7:cjc174_4241"
    INDEX 01 00:16:23
  TRACK 19 AUDIO
    TITLE "0:"
    INDEX 01 00:17:40
  TRACK 20 AUDIO
    TITLE "8:cjc174_4242"
    INDEX 01 00:18:12
  TRACK 21 AUDIO
    TITLE "0:"
    INDEX 01 00:19:45
  TRACK 22 AUDIO
    TITLE "7:cjc174_4243"
    INDEX 01 00:20:19
  TRACK 23 AUDIO
    TITLE "0:"
    INDEX 01 00:21:24
  TRACK 24 AUDIO
    TITLE "8:cjc174_4244"
    INDEX 01 00:21:69
  TRACK 25 AUDIO
    TITLE "0:"
    INDEX 01 00:23:11
  TRACK 26 AUDIO
    TITLE "7:cjc174_4245"
    INDEX 01 00:23:58
  TRACK 27 AUDIO
    TITLE "0:"
    INDEX 01 00:24:54
  TRACK 28 AUDIO
    TITLE "8:cjc174_4246"
    INDEX 01 00:25:30
  TRACK 29 AUDIO
    TITLE "0:"
    INDEX 01 00:28:54
  TRACK 30 AUDIO
    TITLE "7:cjc174_4247"
    INDEX 01 00:29:24
  TRACK 31 AUDIO
    TITLE "0:"
    INDEX 01 00:30:45
  TRACK 32 AUDIO
    TITLE "8:cjc174_4248"
    INDEX 01 00:31:21
  TRACK 33 AUDIO
    TITLE "0:"
    INDEX 01 00:34:33
  TRACK 34 AUDIO
    TITLE "7:cjc174_4249"
    INDEX 01 00:35:03
  TRACK 35 AUDIO
    TITLE "0:"
    INDEX 01 00:36:41
  TRACK 36 AUDIO
    TITLE "8:cjc174_4250"
    INDEX 01 00:37:13
  TRACK 37 AUDIO
    TITLE "0:"
    INDEX 01 00:39:61
  TRACK 38 AUDIO
    TITLE "7:cjc174_4251"
    INDEX 01 00:40:31
  TRACK 39 AUDIO
    TITLE "0:"
    INDEX 01 00:41:48
  TRACK 40 AUDIO
    TITLE "8:cjc174_4252"
    INDEX 01 00:42:20
  TRACK 41 AUDIO
    TITLE "0:"
    INDEX 01 00:43:53
  TRACK 42 AUDIO
    TITLE "7:cjc174_4253"
    INDEX 01 00:44:23
  TRACK 43 AUDIO
    TITLE "0:"
    INDEX 01 00:45:44
  TRACK 44 AUDIO
    TITLE "8:cjc174_4254"
    INDEX 01 00:46:22
  TRACK 45 AUDIO
    TITLE "0:"
    INDEX 01 00:49:09
  TRACK 46 AUDIO
    TITLE "7:cjc174_4255"
    INDEX 01 00:49:56
  TRACK 47 AUDIO
    TITLE "0:"
    INDEX 01 00:50:63
  TRACK 48 AUDIO
    TITLE "8:cjc174_4256"
    INDEX 01 00:51:35
  TRACK 49 AUDIO
    TITLE "0:"
    INDEX 01 00:55:49
  TRACK 50 AUDIO
    TITLE "7:cjc174_4257"
    INDEX 01 00:56:21
  TRACK 51 AUDIO
    TITLE "0:"
    INDEX 01 00:57:36
  TRACK 52 AUDIO
    TITLE "8:cjc174_4258"
    INDEX 01 00:58:08
  TRACK 53 AUDIO
    TITLE "0:"
    INDEX 01 01:00:42
  TRACK 54 AUDIO
    TITLE "7:cjc174_4259"
    INDEX 01 01:01:14
  TRACK 55 AUDIO
    TITLE "0:"
    INDEX 01 01:02:21
  TRACK 56 AUDIO
    TITLE "8:cjc174_4260"
    INDEX 01 01:02:68
  TRACK 57 AUDIO
    TITLE "0:"
    INDEX 01 01:05:35
  TRACK 58 AUDIO
    TITLE "7:cjc174_4261"
    INDEX 01 01:06:07
  TRACK 59 AUDIO
    TITLE "0:"
    INDEX 01 01:07:13
  TRACK 60 AUDIO
    TITLE "8:cjc174_4262"
    INDEX 01 01:07:64
  TRACK 61 AUDIO
    TITLE "0:"
    INDEX 01 01:10:48
  TRACK 62 AUDIO
    TITLE "7:cjc174_4263"
    INDEX 01 01:11:18
  TRACK 63 AUDIO
    TITLE "0:"
    INDEX 01 01:12:39
  TRACK 64 AUDIO
    TITLE "8:cjc174_4264"
    INDEX 01 01:13:15
  TRACK 65 AUDIO
    TITLE "0:"
    INDEX 01 01:14:38
  TRACK 66 AUDIO
    TITLE "7:cjc174_4265"
    INDEX 01 01:15:08
  TRACK 67 AUDIO
    TITLE "0:"
    INDEX 01 01:16:23
  TRACK 68 AUDIO
    TITLE "8:cjc174_4266"
    INDEX 01 01:16:70
  TRACK 69 AUDIO
    TITLE "0:"
    INDEX 01 01:18:32
  TRACK 70 AUDIO
    TITLE "7:cjc174_4267"
    INDEX 01 01:19:02
  TRACK 71 AUDIO
    TITLE "0:"
    INDEX 01 01:20:17
  TRACK 72 AUDIO
    TITLE "8:cjc174_4268"
    INDEX 01 01:20:62
  TRACK 73 AUDIO
    TITLE "0:"
    INDEX 01 01:22:61
